0
SECTION
2
HEADER
9
$INSUNITS
70
4
0
ENDSEC
0
SECTION
2
TABLES
0
TABLE
2
LTYPE
0
LTYPE
72
65
70
64
2
CONTINUOUS
3
______
73
0
40
0
0
ENDTAB
0
TABLE
2
LAYER
0
ENDTAB
0
ENDSEC
0
SECTION
2
ENTITIES
0
LINE
8
0
10
-9
20
9
11
9
21
9
0
LINE
8
0
10
9
20
9
11
9
21
-9
0
LINE
8
0
10
9
20
-9
11
-9
21
-9
0
LINE
8
0
10
-9
20
-9
11
-9
21
9
0
LINE
8
0
10
-9
20
28
11
9
21
28
0
LINE
8
0
10
9
20
28
11
9
21
10
0
LINE
8
0
10
9
20
10
11
-9
21
10
0
LINE
8
0
10
-9
20
10
11
-9
21
28
0
LINE
8
0
10
-9
20
47
11
9
21
47
0
LINE
8
0
10
9
20
47
11
9
21
29
0
LINE
8
0
10
9
20
29
11
-9
21
29
0
LINE
8
0
10
-9
20
29
11
-9
21
47
0
LINE
8
0
10
10
20
22
11
28
21
22
0
LINE
8
0
10
28
20
22
11
28
21
4
0
LINE
8
0
10
28
20
4
11
10
21
4
0
LINE
8
0
10
10
20
4
11
10
21
22
0
LINE
8
0
10
10
20
41
11
28
21
41
0
LINE
8
0
10
28
20
41
11
28
21
23
0
LINE
8
0
10
28
20
23
11
10
21
23
0
LINE
8
0
10
10
20
23
11
10
21
41
0
LINE
8
0
10
10
20
60
11
28
21
60
0
LINE
8
0
10
28
20
60
11
28
21
42
0
LINE
8
0
10
28
20
42
11
10
21
42
0
LINE
8
0
10
10
20
42
11
10
21
60
0
LINE
8
0
10
29
20
27
11
47
21
27
0
LINE
8
0
10
47
20
27
11
47
21
9
0
LINE
8
0
10
47
20
9
11
29
21
9
0
LINE
8
0
10
29
20
9
11
29
21
27
0
LINE
8
0
10
29
20
46
11
47
21
46
0
LINE
8
0
10
47
20
46
11
47
21
28
0
LINE
8
0
10
47
20
28
11
29
21
28
0
LINE
8
0
10
29
20
28
11
29
21
46
0
LINE
8
0
10
29
20
65
11
47
21
65
0
LINE
8
0
10
47
20
65
11
47
21
47
0
LINE
8
0
10
47
20
47
11
29
21
47
0
LINE
8
0
10
29
20
47
11
29
21
65
0
LINE
8
0
10
48
20
23.5
11
66
21
23.5
0
LINE
8
0
10
66
20
23.5
11
66
21
5.5
0
LINE
8
0
10
66
20
5.5
11
48
21
5.5
0
LINE
8
0
10
48
20
5.5
11
48
21
23.5
0
LINE
8
0
10
48
20
42.5
11
66
21
42.5
0
LINE
8
0
10
66
20
42.5
11
66
21
24.5
0
LINE
8
0
10
66
20
24.5
11
48
21
24.5
0
LINE
8
0
10
48
20
24.5
11
48
21
42.5
0
LINE
8
0
10
48
20
61.5
11
66
21
61.5
0
LINE
8
0
10
66
20
61.5
11
66
21
43.5
0
LINE
8
0
10
66
20
43.5
11
48
21
43.5
0
LINE
8
0
10
48
20
43.5
11
48
21
61.5
0
LINE
8
0
10
67
20
22.5
11
85
21
22.5
0
LINE
8
0
10
85
20
22.5
11
85
21
4.5
0
LINE
8
0
10
85
20
4.5
11
67
21
4.5
0
LINE
8
0
10
67
20
4.5
11
67
21
22.5
0
LINE
8
0
10
67
20
41.5
11
85
21
41.5
0
LINE
8
0
10
85
20
41.5
11
85
21
23.5
0
LINE
8
0
10
85
20
23.5
11
67
21
23.5
0
LINE
8
0
10
67
20
23.5
11
67
21
41.5
0
LINE
8
0
10
67
20
60.5
11
85
21
60.5
0
LINE
8
0
10
85
20
60.5
11
85
21
42.5
0
LINE
8
0
10
85
20
42.5
11
67
21
42.5
0
LINE
8
0
10
67
20
42.5
11
67
21
60.5
0
LINE
8
0
10
48
20
4.5
11
66
21
4.5
0
LINE
8
0
10
66
20
4.5
11
66
21
-13.5
0
LINE
8
0
10
66
20
-13.5
11
48
21
-13.5
0
LINE
8
0
10
48
20
-13.5
11
48
21
4.5
0
LINE
8
0
10
71.0838885
20
3.7490071
11
88.8104281
21
0.6233399
0
LINE
8
0
10
88.8104281
20
0.6233399
11
85.6847609
21
-17.1031997
0
LINE
8
0
10
85.6847609
20
-17.1031997
11
67.9582213
21
-13.9775325
0
LINE
8
0
10
67.9582213
20
-13.9775325
11
71.0838885
21
3.7490071
0
LINE
8
0
10
93.7881814
20
-0.6202149
11
110.7026486
21
-6.7765775
0
LINE
8
0
10
110.7026486
20
-6.7765775
11
104.546286
21
-23.6910447
0
LINE
8
0
10
104.546286
20
-23.6910447
11
87.6318188
21
-17.5346821
0
LINE
8
0
10
87.6318188
20
-17.5346821
11
93.7881814
21
-0.6202149
0
ENDSEC
0
EOF